<svg xmlns="http://www.w3.org/2000/svg" xmlns:xlink="http://www.w3.org/1999/xlink" id="Layer_1" version="1.1" viewBox="0 0 50 50" xml:space="preserve" style="enable-background:new 0 0 50 50"><style type="text/css">.st0{fill:none}.st1{fill:#b7c5fd}.st2{fill:#d9ddf6}.st5{fill:#3955d1}.st6{fill:#4466fb}.st9{fill:#6bb5fb}.st10{enable-background:new}.st12{fill:url(#SVGID_1_)}.st13{fill:url(#SVGID_2_)}.st14{fill:url(#SVGID_3_)}</style><pattern id="Unnamed_Pattern_12" width="32.252" height="32.252" x="-140" patternUnits="userSpaceOnUse" viewBox="0 -32.252 32.252 32.252" style="overflow:visible"><g><rect width="32.252" height="32.252" y="-32.252" class="st0"/><g><rect width="32.252" height="32.252" x="0" y="-32.252" class="st1"/></g></g></pattern><pattern id="Unnamed_Pattern_13" width="32.252" height="32.252" x="-140" patternUnits="userSpaceOnUse" viewBox="0 -32.252 32.252 32.252" style="overflow:visible"><g><rect width="32.252" height="32.252" y="-32.252" class="st0"/><g><rect width="32.252" height="32.252" x="0" y="-32.252" class="st2"/></g></g></pattern><g><g><g><pattern id="SVGID_1_" patternTransform="matrix(0.17392 0 0 0.17392 -6541.2334 -6543.34619)" xlink:href="#Unnamed_Pattern_12"/><path d="M17.31612,6.229l-4.65751,2.70789c-1.41916-0.6348-2.69223-0.62436-3.64878-0.06783l4.65924-2.70789 C14.62388,5.60638,15.89695,5.59594,17.31612,6.229z" class="st12"/><g><pattern id="SVGID_2_" patternTransform="matrix(0.17392 0 0 0.17392 -6541.2334 -6543.34619)" xlink:href="#Unnamed_Pattern_12"/><path d="M46.6716,30.74611c-0.00522,1.76525-0.62784,3.00876-1.63309,3.59312l-4.65924,2.70615 c1.00524-0.58436,1.6296-1.82613,1.63482-3.59312c0.00871-3.33921-2.19657-7.36366-5.02794-9.40718 c0.00869-3.55487-2.49049-7.8854-5.58274-9.66979c-1.23656-0.7148-2.38093-0.91481-3.30791-0.66959 c-1.40874-3.694-4.09053-7.18626-7.17234-8.96543c-2.29397-1.32351-4.37228-1.44699-5.87319-0.57567l4.65751-2.70615 c1.50089-0.87133,3.57921-0.74958,5.87317,0.57567c3.08182,1.77917,5.76362,5.27143,7.17234,8.96543 c0.92872-0.24522,2.07136-0.04695,3.30965,0.66785c3.09224,1.78613,5.59144,6.11492,5.581,9.66979 C44.47502,23.38245,46.68029,27.4069,46.6716,30.74611z" class="st13"/><pattern id="SVGID_3_" patternTransform="matrix(0.17392 0 0 0.17392 -6541.2334 -6543.34619)" xlink:href="#Unnamed_Pattern_13"/><path d="M20.92295,4.741c3.08137,1.77903,5.76303,5.27117,7.17175,8.96516 c0.92828-0.24493,2.07219-0.04586,3.30918,0.66832c3.09246,1.78543,5.59158,6.11536,5.5815,9.67012 c2.83258,2.04436,5.03783,6.06915,5.02836,9.40827c-0.01007,3.55348-2.52442,4.98888-5.618,3.2028L13.31717,23.33124 c-3.3734-1.94763-6.09941-6.66927-6.08842-10.54684c0.01021-3.60197,2.38379-5.2081,5.42964-3.84832 C12.91017,4.08308,16.5191,2.19843,20.92295,4.741z" class="st14"/></g></g></g><g><g><g><path d="M34.85914,27.78713c-0.84584-0.48835-1.53339-0.09651-1.53615,0.87545 c-0.00275,0.97187,0.68033,2.15504,1.52617,2.64338c0.84584,0.48835,1.53339,0.09652,1.53615-0.87535 C36.38807,29.45865,35.70498,28.27548,34.85914,27.78713z" class="st6"/></g><g><g><g><g><g class="st10"><g><g class="st10"><g><path d="M34.01853,44.62872l0,1.94298c-0.00183,0.64562-0.42613,1.29028-1.27388,1.78293 c-1.7062,0.99154-4.48206,0.99155-6.19943,0.00003c-0.86432-0.49902-1.29594-1.154-1.29408-1.80797l-0.00001-1.94298 c-0.00185,0.65396,0.42976,1.30895,1.29408,1.80797c1.71738,0.99153,4.49323,0.99151,6.19943-0.00003 C33.5924,45.91899,34.0167,45.27433,34.01853,44.62872z" class="st5"/></g></g></g><g><path d="M34.19147,44.37115l0.00001,1.29882c-0.0019,0.67109-0.44294,1.34118-1.32413,1.85327 c-1.77351,1.03065-4.65888,1.03067-6.444,0.00003c-0.89842-0.5187-1.34706-1.19953-1.34514-1.87929l-0.00001-1.29882 c-0.00193,0.67977,0.44671,1.36059,1.34514,1.87929c1.78513,1.03065,4.67049,1.03062,6.444-0.00003 C33.74852,45.71233,34.18957,45.04224,34.19147,44.37115z" class="st6"/></g><ellipse cx="29.635" cy="44.358" class="st9" rx="2.639" ry="4.557" transform="matrix(0.00284 -1 1 0.00284 -14.80718 73.86703)"/></g></g></g><g><g><g class="st10"><g><g class="st10"><g><path d="M34.01853,41.99403l0,1.94299c-0.00183,0.64561-0.42613,1.29027-1.27388,1.78293 c-1.7062,0.99154-4.48206,0.99156-6.19943,0.00003c-0.86432-0.49902-1.29594-1.154-1.29408-1.80797l-0.00001-1.94298 c-0.00185,0.65397,0.42976,1.30895,1.29408,1.80797c1.71738,0.99153,4.49323,0.99151,6.19943-0.00003 C33.5924,43.28431,34.0167,42.63965,34.01853,41.99403z" class="st5"/></g></g></g><g><path d="M34.19147,41.73647l0.00001,1.29882c-0.0019,0.67109-0.44294,1.34118-1.32413,1.85327 c-1.77351,1.03065-4.65888,1.03067-6.444,0.00003c-0.89842-0.51871-1.34706-1.19953-1.34514-1.8793l-0.00001-1.29882 c-0.00193,0.67977,0.44671,1.36059,1.34514,1.8793c1.78513,1.03064,4.67049,1.03062,6.444-0.00003 C33.74852,43.07764,34.18957,42.40755,34.19147,41.73647z" class="st6"/></g><ellipse cx="29.635" cy="41.723" class="st9" rx="2.639" ry="4.557" transform="matrix(0.00284 -1 1 0.00284 -12.17251 71.23981)"/></g></g></g><g><g><g class="st10"><g><g class="st10"><g><path d="M34.01853,39.35935l0,1.94298c-0.00183,0.64561-0.42613,1.29027-1.27388,1.78293 c-1.7062,0.99154-4.48206,0.99156-6.19943,0.00003c-0.86432-0.49902-1.29594-1.154-1.29408-1.80797l-0.00001-1.94299 c-0.00185,0.65397,0.42976,1.30895,1.29408,1.80797c1.71738,0.99153,4.49323,0.99151,6.19943-0.00003 C33.5924,40.64962,34.0167,40.00496,34.01853,39.35935z" class="st5"/></g></g></g><g><path d="M34.19147,39.10178l0.00001,1.29882c-0.0019,0.67109-0.44294,1.34118-1.32413,1.85327 c-1.77351,1.03065-4.65888,1.03067-6.444,0.00003c-0.89842-0.5187-1.34706-1.19953-1.34514-1.8793l-0.00001-1.29882 c-0.00193,0.67976,0.44671,1.36059,1.34514,1.87929c1.78513,1.03064,4.67049,1.03062,6.444-0.00003 C33.74852,40.44296,34.18957,39.77287,34.19147,39.10178z" class="st6"/></g><ellipse cx="29.635" cy="39.089" class="st9" rx="2.639" ry="4.557" transform="matrix(0.00284 -1 1 0.00284 -9.53784 68.61261)"/></g></g></g></g><path d="M34.90586,29.08594c-0.10223-0.06135-0.19428-0.06135-0.26581-0.02047l-2.59723,1.50063 c-1.56451,0.91008-2.79157,3.02674-2.79157,4.83659v3.68981c0,0.07158,0.05118,0.1534,0.15341,0.21476 c0.20452,0.1227,0.54198,0.1227,0.74643,0c0.09205-0.06135,0.14317-0.13294,0.14317-0.21476l-0.02047-3.70004 c0-1.42128,1.04301-3.22096,2.2803-3.93675l2.59723-1.5108c0.07152-0.04094,0.11246-0.1227,0.11246-0.23523 C35.26379,29.48475,35.10015,29.1984,34.90586,29.08594z" class="st5"/></g></g><g><g><path d="M23.98423,21.59221c-0.84584-0.48835-1.53339-0.09651-1.53615,0.87545 c-0.00276,0.97187,0.68033,2.15504,1.52617,2.64338c0.84584,0.48835,1.5334,0.09652,1.53615-0.87535 C25.51316,23.26372,24.83008,22.08055,23.98423,21.59221z" class="st6"/></g><g><g><g><g><g class="st10"><g><g class="st10"><g><path d="M23.14363,38.43379l0.00001,1.94298c-0.00183,0.64562-0.42613,1.29028-1.27388,1.78293 c-1.7062,0.99154-4.48206,0.99155-6.19943,0.00003c-0.86432-0.49902-1.29594-1.154-1.29408-1.80797l-0.00001-1.94298 c-0.00185,0.65396,0.42976,1.30895,1.29408,1.80797c1.71738,0.99153,4.49323,0.99151,6.19943-0.00003 C22.71749,39.72406,23.1418,39.0794,23.14363,38.43379z" class="st5"/></g></g></g><g><path d="M23.31656,38.17622l0.00001,1.29882c-0.0019,0.67109-0.44295,1.34118-1.32413,1.85326 c-1.77351,1.03065-4.65887,1.03067-6.444,0.00003c-0.89842-0.5187-1.34706-1.19953-1.34514-1.87929l-0.00001-1.29882 c-0.00193,0.67976,0.44671,1.36059,1.34514,1.87929c1.78513,1.03065,4.67049,1.03062,6.444-0.00003 C22.87362,39.5174,23.31466,38.84731,23.31656,38.17622z" class="st6"/></g><ellipse cx="18.76" cy="38.163" class="st9" rx="2.639" ry="4.557" transform="matrix(0.00284 -1 1 0.00284 -19.45634 56.81481)"/></g></g></g><g><g><g class="st10"><g><g class="st10"><g><path d="M23.14363,35.7991l0.00001,1.94299c-0.00183,0.64561-0.42613,1.29027-1.27388,1.78293 c-1.7062,0.99154-4.48206,0.99156-6.19943,0.00003c-0.86432-0.49902-1.29594-1.154-1.29408-1.80797l-0.00001-1.94298 c-0.00185,0.65396,0.42976,1.30895,1.29408,1.80797c1.71738,0.99153,4.49323,0.99151,6.19943-0.00003 C22.71749,37.08938,23.1418,36.44472,23.14363,35.7991z" class="st5"/></g></g></g><g><path d="M23.31656,35.54154l0.00001,1.29882c-0.0019,0.67109-0.44295,1.34118-1.32413,1.85327 c-1.77351,1.03065-4.65887,1.03067-6.444,0.00003c-0.89842-0.51871-1.34706-1.19953-1.34514-1.8793l-0.00001-1.29882 c-0.00193,0.67977,0.44671,1.36059,1.34514,1.8793c1.78513,1.03064,4.67049,1.03062,6.444-0.00003 C22.87362,36.88271,23.31466,36.21262,23.31656,35.54154z" class="st6"/></g><ellipse cx="18.76" cy="35.529" class="st9" rx="2.639" ry="4.557" transform="matrix(0.00284 -1 1 0.00284 -16.82167 54.1876)"/></g></g></g><g><g><g class="st10"><g><g class="st10"><g><path d="M23.14363,33.16442l0.00001,1.94298c-0.00183,0.64561-0.42613,1.29027-1.27388,1.78293 c-1.7062,0.99154-4.48206,0.99156-6.19943,0.00003c-0.86432-0.49902-1.29594-1.154-1.29408-1.80797l-0.00001-1.94299 c-0.00185,0.65397,0.42976,1.30895,1.29408,1.80797c1.71738,0.99153,4.49323,0.99151,6.19943-0.00003 C22.71749,34.45469,23.1418,33.81004,23.14363,33.16442z" class="st5"/></g></g></g><g><path d="M23.31656,32.90686l0.00001,1.29882c-0.0019,0.67109-0.44295,1.34118-1.32413,1.85327 c-1.77351,1.03065-4.65887,1.03067-6.444,0.00003c-0.89842-0.5187-1.34706-1.19953-1.34514-1.8793l-0.00001-1.29882 c-0.00193,0.67976,0.44671,1.36059,1.34514,1.87929c1.78513,1.03064,4.67049,1.03062,6.444-0.00003 C22.87362,34.24803,23.31466,33.57794,23.31656,32.90686z" class="st6"/></g><ellipse cx="18.76" cy="32.894" class="st9" rx="2.639" ry="4.557" transform="matrix(0.00284 -1 1 0.00284 -14.18699 51.56039)"/></g></g></g></g><path d="M24.03096,22.89101c-0.10223-0.06135-0.19428-0.06135-0.26581-0.02047l-2.59723,1.50063 c-1.56451,0.91008-2.79157,3.02674-2.79157,4.83659v3.68981c0,0.07158,0.05118,0.1534,0.15341,0.21476 c0.20452,0.1227,0.54198,0.1227,0.74643,0c0.09206-0.06135,0.14317-0.13294,0.14317-0.21476l-0.02047-3.70004 c0-1.42128,1.04301-3.22096,2.2803-3.93675l2.59723-1.5108c0.07152-0.04094,0.11246-0.1227,0.11246-0.23523 C24.38888,23.28982,24.22524,23.00348,24.03096,22.89101z" class="st5"/></g></g><g><g><path d="M13.10933,15.39728c-0.84584-0.48835-1.53339-0.09651-1.53615,0.87545 c-0.00276,0.97187,0.68033,2.15504,1.52617,2.64338c0.84584,0.48835,1.5334,0.09652,1.53615-0.87535 C14.63826,17.0688,13.95517,15.88563,13.10933,15.39728z" class="st6"/></g><g><g><g><g><g class="st10"><g><g class="st10"><g><path d="M12.26872,32.23886l0,1.94298c-0.00183,0.64562-0.42613,1.29028-1.27388,1.78293 c-1.7062,0.99154-4.48206,0.99155-6.19943,0.00003c-0.86432-0.49902-1.29594-1.154-1.29408-1.80797l-0.00001-1.94298 c-0.00185,0.65396,0.42976,1.30895,1.29408,1.80797c1.71738,0.99153,4.49323,0.99151,6.19943-0.00003 C11.84259,33.52913,12.26689,32.88448,12.26872,32.23886z" class="st5"/></g></g></g><g><path d="M12.44166,31.9813l0,1.29882c-0.0019,0.67109-0.44294,1.34118-1.32413,1.85326 c-1.77351,1.03065-4.65887,1.03067-6.444,0.00003c-0.89842-0.5187-1.34706-1.19953-1.34514-1.87929L3.32839,31.9553 c-0.00193,0.67976,0.44671,1.36059,1.34514,1.87929c1.78513,1.03065,4.67049,1.03062,6.444-0.00003 C11.99872,33.32247,12.43976,32.65238,12.44166,31.9813z" class="st6"/></g><ellipse cx="7.885" cy="31.968" class="st9" rx="2.639" ry="4.557" transform="matrix(0.00284 -1 1 0.00284 -24.1055 39.7626)"/></g></g></g><g><g><g class="st10"><g><g class="st10"><g><path d="M12.26872,29.60418l0,1.94298c-0.00183,0.64562-0.42613,1.29027-1.27388,1.78293 c-1.7062,0.99154-4.48206,0.99156-6.19943,0.00003c-0.86432-0.49902-1.29594-1.154-1.29408-1.80797l-0.00001-1.94298 c-0.00185,0.65397,0.42976,1.30895,1.29408,1.80797c1.71738,0.99153,4.49323,0.99151,6.19943-0.00003 C11.84259,30.89445,12.26689,30.24979,12.26872,29.60418z" class="st5"/></g></g></g><g><path d="M12.44166,29.34661l0,1.29882c-0.0019,0.67109-0.44294,1.34118-1.32413,1.85327 c-1.77351,1.03065-4.65887,1.03067-6.444,0.00003c-0.89842-0.51871-1.34706-1.19953-1.34514-1.8793l-0.00001-1.29882 c-0.00193,0.67977,0.44671,1.36059,1.34514,1.8793c1.78513,1.03064,4.67049,1.03062,6.444-0.00003 C11.99872,30.68779,12.43976,30.0177,12.44166,29.34661z" class="st6"/></g><ellipse cx="7.885" cy="29.334" class="st9" rx="2.639" ry="4.557" transform="matrix(0.00284 -1 1 0.00284 -21.47083 37.13538)"/></g></g></g><g><g><g class="st10"><g><g class="st10"><g><path d="M12.26872,26.96949l0,1.94298c-0.00183,0.64562-0.42613,1.29027-1.27388,1.78293 c-1.7062,0.99154-4.48206,0.99156-6.19943,0.00003c-0.86432-0.49902-1.29594-1.154-1.29408-1.80797l-0.00001-1.94298 c-0.00185,0.65397,0.42976,1.30895,1.29408,1.80797c1.71738,0.99153,4.49323,0.99151,6.19943-0.00003 C11.84259,28.25977,12.26689,27.61511,12.26872,26.96949z" class="st5"/></g></g></g><g><path d="M12.44166,26.71193l0,1.29882c-0.0019,0.67109-0.44294,1.34118-1.32413,1.85327 c-1.77351,1.03065-4.65887,1.03067-6.444,0.00003c-0.89842-0.51871-1.34706-1.19953-1.34514-1.87929l-0.00001-1.29882 c-0.00193,0.67977,0.44671,1.36059,1.34514,1.87929c1.78513,1.03065,4.67049,1.03062,6.444-0.00003 C11.99872,28.0531,12.43976,27.38301,12.44166,26.71193z" class="st6"/></g><ellipse cx="7.885" cy="26.699" class="st9" rx="2.639" ry="4.557" transform="matrix(0.00284 -1 1 0.00284 -18.83615 34.50817)"/></g></g></g></g><path d="M13.15605,16.69608c-0.10223-0.06135-0.19429-0.06135-0.26581-0.02047l-2.59723,1.50063 c-1.56451,0.91007-2.79157,3.02674-2.79157,4.83659v3.68981c0,0.07159,0.05118,0.15341,0.15341,0.21476 c0.20452,0.1227,0.54198,0.1227,0.74643,0c0.09206-0.06135,0.14317-0.13293,0.14317-0.21476L8.52398,23.0026 c0-1.42128,1.04301-3.22096,2.2803-3.93675l2.59723-1.5108c0.07152-0.04094,0.11246-0.1227,0.11246-0.23523 C13.51398,17.09489,13.35034,16.80855,13.15605,16.69608z" class="st5"/></g></g></g></g></svg>